<!-- <svg width="176" height="32" viewBox="0 0 176 32" fill="none" xmlns="http://www.w3.org/2000/svg">
<path d="M44 9.17592H50.2773V27.1572H54.032V9.17592H60.3093V5.71459H44V9.17592Z" fill="white"/>
<path d="M64.4999 27.5386C66.7585 27.5386 68.7239 26.5119 69.3399 25.0159L69.6039 27.1572H72.7425V18.3572C72.7425 14.3386 70.3372 12.2266 66.4359 12.2266C62.5052 12.2266 59.9239 14.2799 59.9239 17.4186H62.9745C62.9745 15.8933 64.1479 15.0133 66.2599 15.0133C68.0785 15.0133 69.2519 15.8053 69.2519 17.7706V18.0932L64.9105 18.4159C61.4785 18.6799 59.5425 20.3519 59.5425 23.0213C59.5425 25.7492 61.4199 27.5386 64.4999 27.5386ZM65.6732 24.8399C64.0599 24.8399 63.1799 24.1946 63.1799 22.8746C63.1799 21.7012 64.0305 20.9679 66.2599 20.7626L69.2812 20.5279V21.2906C69.2812 23.5199 67.8732 24.8399 65.6732 24.8399Z" fill="white"/>
<path d="M78.0475 9.76258C79.2209 9.76258 80.1889 8.79458 80.1889 7.59192C80.1889 6.38925 79.2209 5.45059 78.0475 5.45059C76.8155 5.45059 75.8475 6.38925 75.8475 7.59192C75.8475 8.79458 76.8155 9.76258 78.0475 9.76258ZM76.2582 27.1572H79.8369V12.6666H76.2582V27.1572Z" fill="white"/>
<path d="M87.1422 27.1572V5.33325H83.5929V27.1572H87.1422Z" fill="white"/>
<path d="M93.2722 27.1572L95.0029 22.1999H103.011L104.742 27.1572H108.702L100.958 5.71459H97.1149L89.3709 27.1572H93.2722ZM98.5522 12.1093C98.7576 11.5226 98.9335 10.8773 99.0215 10.4666C99.0802 10.9066 99.2855 11.5519 99.4615 12.1093L101.926 19.0319H96.1175L98.5522 12.1093Z" fill="white"/>
<path d="M116.158 27.5386C118.358 27.5386 120.236 26.5706 121.116 24.8986L121.35 27.1572H124.636V5.33325H121.086V14.5146C120.177 13.0773 118.388 12.2266 116.364 12.2266C111.993 12.2266 109.353 15.4533 109.353 19.9706C109.353 24.4586 111.964 27.5386 116.158 27.5386ZM116.95 24.2532C114.457 24.2532 112.932 22.4346 112.932 19.8533C112.932 17.2719 114.457 15.4239 116.95 15.4239C119.444 15.4239 121.057 17.2426 121.057 19.8533C121.057 22.4639 119.444 24.2532 116.95 24.2532Z" fill="white"/>
<path d="M131.944 27.1572V18.9439C131.944 16.5973 133.322 15.4826 135.024 15.4826C136.725 15.4826 137.81 16.5679 137.81 18.5919V27.1572H141.389V18.9439C141.389 16.5679 142.709 15.4533 144.44 15.4533C146.141 15.4533 147.256 16.5386 147.256 18.6213V27.1572H150.805V17.6826C150.805 14.3386 148.869 12.2266 145.349 12.2266C143.149 12.2266 141.448 13.3119 140.714 14.9839C139.952 13.3119 138.426 12.2266 136.226 12.2266C134.144 12.2266 132.677 13.1653 131.944 14.3679L131.65 12.6666H128.365V27.1572H131.944Z" fill="white"/>
<path d="M156.107 9.76258C157.281 9.76258 158.249 8.79458 158.249 7.59192C158.249 6.38925 157.281 5.45059 156.107 5.45059C154.875 5.45059 153.907 6.38925 153.907 7.59192C153.907 8.79458 154.875 9.76258 156.107 9.76258ZM154.318 27.1572H157.897V12.6666H154.318V27.1572Z" fill="white"/>
<path d="M165.173 27.1572V19.3546C165.173 17.0079 166.522 15.4826 168.722 15.4826C170.57 15.4826 171.773 16.6559 171.773 19.0906V27.1572H175.351V18.2399C175.351 14.4853 173.474 12.2266 169.837 12.2266C167.871 12.2266 166.111 13.0773 165.202 14.5439L164.909 12.6666H161.594V27.1572H165.173Z" fill="white"/>
<path d="M0 8.42105C0 3.77023 3.77023 0 8.42105 0H23.5789C28.2298 0 32 3.77023 32 8.42105V23.5789C32 28.2298 28.2298 32 23.5789 32H8.42105C3.77023 32 0 28.2298 0 23.5789V8.42105Z" fill="#3C50E0"/>
<g filter="url(#filter0_d_506_10589)">
<path d="M8.42139 8.42127C8.42139 7.49111 9.17543 6.73706 10.1056 6.73706V6.73706C11.0358 6.73706 11.7898 7.49111 11.7898 8.42127V23.5792C11.7898 24.5093 11.0358 25.2634 10.1056 25.2634V25.2634C9.17543 25.2634 8.42139 24.5093 8.42139 23.5792V8.42127Z" fill="white"/>
</g>
<g opacity="0.9" filter="url(#filter1_d_506_10589)">
<path d="M14.7368 15.1576C14.7368 14.2274 15.4909 13.4734 16.421 13.4734V13.4734C17.3512 13.4734 18.1052 14.2274 18.1052 15.1576V23.5786C18.1052 24.5088 17.3512 25.2629 16.421 25.2629V25.2629C15.4909 25.2629 14.7368 24.5088 14.7368 23.5786V15.1576Z" fill="white"/>
</g>
<g opacity="0.7" filter="url(#filter2_d_506_10589)">
<path d="M21.0522 10.9469C21.0522 10.0167 21.8063 9.2627 22.7365 9.2627V9.2627C23.6666 9.2627 24.4207 10.0167 24.4207 10.9469V23.5785C24.4207 24.5086 23.6666 25.2627 22.7365 25.2627V25.2627C21.8063 25.2627 21.0522 24.5086 21.0522 23.5785V10.9469Z" fill="white"/>
</g>
<defs>
<filter id="filter0_d_506_10589" x="7.42139" y="6.23706" width="5.36865" height="20.5264" filterUnits="userSpaceOnUse" color-interpolation-filters="sRGB">
<feFlood flood-opacity="0" result="BackgroundImageFix"/>
<feColorMatrix in="SourceAlpha" type="matrix" values="0 0 0 0 0 0 0 0 0 0 0 0 0 0 0 0 0 0 127 0" result="hardAlpha"/>
<feOffset dy="0.5"/>
<feGaussianBlur stdDeviation="0.5"/>
<feComposite in2="hardAlpha" operator="out"/>
<feColorMatrix type="matrix" values="0 0 0 0 0 0 0 0 0 0 0 0 0 0 0 0 0 0 0.12 0"/>
<feBlend mode="normal" in2="BackgroundImageFix" result="effect1_dropShadow_506_10589"/>
<feBlend mode="normal" in="SourceGraphic" in2="effect1_dropShadow_506_10589" result="shape"/>
</filter>
<filter id="filter1_d_506_10589" x="13.7368" y="12.9734" width="5.36865" height="13.7896" filterUnits="userSpaceOnUse" color-interpolation-filters="sRGB">
<feFlood flood-opacity="0" result="BackgroundImageFix"/>
<feColorMatrix in="SourceAlpha" type="matrix" values="0 0 0 0 0 0 0 0 0 0 0 0 0 0 0 0 0 0 127 0" result="hardAlpha"/>
<feOffset dy="0.5"/>
<feGaussianBlur stdDeviation="0.5"/>
<feComposite in2="hardAlpha" operator="out"/>
<feColorMatrix type="matrix" values="0 0 0 0 0 0 0 0 0 0 0 0 0 0 0 0 0 0 0.12 0"/>
<feBlend mode="normal" in2="BackgroundImageFix" result="effect1_dropShadow_506_10589"/>
<feBlend mode="normal" in="SourceGraphic" in2="effect1_dropShadow_506_10589" result="shape"/>
</filter>
<filter id="filter2_d_506_10589" x="20.0522" y="8.7627" width="5.36865" height="18" filterUnits="userSpaceOnUse" color-interpolation-filters="sRGB">
<feFlood flood-opacity="0" result="BackgroundImageFix"/>
<feColorMatrix in="SourceAlpha" type="matrix" values="0 0 0 0 0 0 0 0 0 0 0 0 0 0 0 0 0 0 127 0" result="hardAlpha"/>
<feOffset dy="0.5"/>
<feGaussianBlur stdDeviation="0.5"/>
<feComposite in2="hardAlpha" operator="out"/>
<feColorMatrix type="matrix" values="0 0 0 0 0 0 0 0 0 0 0 0 0 0 0 0 0 0 0.12 0"/>
<feBlend mode="normal" in2="BackgroundImageFix" result="effect1_dropShadow_506_10589"/>
<feBlend mode="normal" in="SourceGraphic" in2="effect1_dropShadow_506_10589" result="shape"/>
</filter>
</defs>
</svg> -->
<!-- <?xml version="1.0" encoding="UTF-8"?> -->
<svg version="1.1" xmlns="http://www.w3.org/2000/svg" width="319" height="78">
<path d="M0 0 C105.27 0 210.54 0 319 0 C319 25.74 319 51.48 319 78 C213.73 78 108.46 78 0 78 C0 52.26 0 26.52 0 0 Z " fill="#FCFCFD" transform="translate(0,0)"/>
<path d="M0 0 C8.66049387 6.03051797 15.45259864 13.70267173 17.58203125 24.15625 C17.68515625 25.3525 17.78828125 26.54875 17.89453125 27.78125 C17.95898438 28.43609375 18.0234375 29.0909375 18.08984375 29.765625 C18.63075542 39.64627825 15.31092498 49.36880953 8.875 56.84765625 C0.14214689 65.37381462 -9.21276476 68.27132821 -21.21850586 68.20751953 C-26.98032851 68.01012691 -31.24558926 66.79772693 -36.10546875 63.78125 C-37.65234375 62.915 -37.65234375 62.915 -39.23046875 62.03125 C-46.39707769 56.42259952 -52.42030756 48.92245459 -54.10546875 39.78125 C-54.81192931 27.35026133 -54.27171358 17.73955614 -46.0546875 7.8515625 C-43.02770368 4.63652959 -39.85494711 2.10437313 -36.10546875 -0.21875 C-35.45191406 -0.63253906 -34.79835938 -1.04632813 -34.125 -1.47265625 C-24.00070738 -6.92419843 -9.81694312 -5.68253479 0 0 Z " fill="#6073FF" transform="translate(67.10546875,8.21875)"/>
<path d="M0 0 C2.8125 -0.1875 2.8125 -0.1875 6 0 C7.02104551 0.97850195 8.0206121 1.97980427 9 3 C10.99422795 3.36628677 12.99453311 3.70131344 15 4 C17 6 17 6 17.5 9.0625 C17.7475 10.5165625 17.7475 10.5165625 18 12 C18.66 12.33 19.32 12.66 20 13 C20.49667406 19.33259424 20.49667406 19.33259424 18 22.6875 C17.34 23.450625 16.68 24.21375 16 25 C16 26.32 16 27.64 16 29 C14 31 14 31 12.0546875 31.1953125 C10.03645833 31.13020833 8.01822917 31.06510417 6 31 C6 35.62 6 40.24 6 45 C2.13763565 46.93118218 -2.56341181 46.31534465 -6.8125 46.375 C-8.31006836 46.43107422 -8.31006836 46.43107422 -9.83789062 46.48828125 C-11.28905273 46.50568359 -11.28905273 46.50568359 -12.76953125 46.5234375 C-14.09368042 46.5531665 -14.09368042 46.5531665 -15.44458008 46.58349609 C-19.22668248 45.7199034 -20.67912765 44.0573351 -23 41 C-23.58349609 37.69433594 -23.58349609 37.69433594 -23.5234375 33.984375 C-23.51873444 33.32794006 -23.51403137 32.67150513 -23.50918579 31.99517822 C-23.48794516 29.91235626 -23.43136506 27.8321351 -23.375 25.75 C-23.35848237 24.33596143 -23.34413701 22.92189572 -23.33203125 21.5078125 C-23.1962106 11.1962106 -23.1962106 11.1962106 -22 10 C-20.15108054 9.76636119 -18.29511969 9.58696365 -16.4375 9.4375 C-15.42558594 9.35371094 -14.41367187 9.26992188 -13.37109375 9.18359375 C-12.58863281 9.12300781 -11.80617188 9.06242187 -11 9 C-10.896875 8.38125 -10.79375 7.7625 -10.6875 7.125 C-10 5 -10 5 -7 3 C-5.453125 2.7525 -5.453125 2.7525 -3.875 2.5 C-2.92625 2.335 -1.9775 2.17 -1 2 C-0.67 1.34 -0.34 0.68 0 0 Z " fill="#F1F2FD" transform="translate(52,17)"/>
<path d="M0 0 C2.64 0 5.28 0 8 0 C8 2.31 8 4.62 8 7 C9.65 7 11.3 7 13 7 C13 8.98 13 10.96 13 13 C11.35 13 9.7 13 8 13 C8 16.96 8 20.92 8 25 C9.65 25 11.3 25 13 25 C13 27.31 13 29.62 13 32 C8.03567635 32.29201904 4.96298426 32.14707573 1 29 C-0.14077657 25.57767028 -0.09815117 22.91326783 -0.0625 19.3125 C-0.05347656 18.13300781 -0.04445312 16.95351563 -0.03515625 15.73828125 C-0.02355469 14.83464844 -0.01195312 13.93101563 0 13 C-1.32 12.67 -2.64 12.34 -4 12 C-5.25156814 14.9576723 -6.50118991 17.91616216 -7.75 20.875 C-8.11689941 21.74382813 -8.48379883 22.61265625 -8.86181641 23.5078125 C-11.05180705 28.70697286 -13.19688898 33.91709265 -15.2109375 39.1875 C-16 41 -16 41 -18 44 C-19.9453125 44.29296875 -19.9453125 44.29296875 -22.125 44.1875 C-23.40375 44.125625 -24.6825 44.06375 -26 44 C-24.99283928 40.74609613 -24.0421462 38.06539927 -22.1875 35.1875 C-20.39823327 30.3847314 -22.07366659 27.57825241 -24 23 C-24.51802699 21.70799173 -25.03345842 20.41494101 -25.546875 19.12109375 C-26.36286321 17.06587682 -27.18233608 15.01266293 -28.01733398 12.96508789 C-30 8.10172111 -30 8.10172111 -30 7 C-27.03 7 -24.06 7 -21 7 C-20.32739649 8.76858691 -19.66211605 10.53996016 -19 12.3125 C-18.62875 13.29863281 -18.2575 14.28476562 -17.875 15.30078125 C-17 18 -17 18 -17 21 C-16.34 21 -15.68 21 -15 21 C-14.89042969 20.41992188 -14.78085938 19.83984375 -14.66796875 19.2421875 C-13.6856635 14.40253723 -12.45178089 10.34633884 -10 6 C-6.7 6 -3.4 6 0 6 C0 4.02 0 2.04 0 0 Z " fill="#0D0D0D" transform="translate(162,23)"/>
<path d="M0 0 C4.021875 -0.0928125 4.021875 -0.0928125 8.125 -0.1875 C8.95789551 -0.21481201 9.79079102 -0.24212402 10.64892578 -0.27026367 C15.50216616 -0.32411136 18.8010775 0.298824 23 3 C24.41000664 5.82001327 24.24548451 7.87007255 24 11 C22.5 13.875 22.5 13.875 21 16 C21.66 16.53625 22.32 17.0725 23 17.625 C25 20 25 20 25.5 22.9375 C24.88235703 26.72056318 23.73221132 28.34368344 21 31 C18.25856954 31.91771836 15.76807806 32.11945514 12.890625 32.09765625 C11.8701709 32.09390991 11.8701709 32.09390991 10.82910156 32.09008789 C9.97799805 32.08098389 9.12689453 32.07187988 8.25 32.0625 C5.5275 32.041875 2.805 32.02125 0 32 C0 21.44 0 10.88 0 0 Z " fill="#060606" transform="translate(107,23)"/>
<path d="M0 0 C1.2375 0.7425 1.2375 0.7425 2.5 1.5 C2.5 4.5 2.5 4.5 1.0625 6.8125 C-1.5 8.5 -1.5 8.5 -3.76953125 8.30859375 C-6.05041212 7.79494656 -8.27126438 7.20481383 -10.5 6.5 C-9.79816676 9.72234339 -9.79816676 9.72234339 -6.84765625 11 C-5.76355469 11.495 -4.67945313 11.99 -3.5625 12.5 C2.2838765 15.17581475 2.2838765 15.17581475 4.5 18.5 C4.72375221 21.61531922 4.35230414 24.49793511 3.5 27.5 C-0.11916301 31.30964528 -3.5692843 32.64041329 -8.75 32.8125 C-13.69057063 32.78824188 -16.4619582 31.24930505 -20.5 28.5 C-19.5 26.5 -18.5 24.5 -17.5 22.5 C-13.21 23.16 -8.92 23.82 -4.5 24.5 C-5.20183324 21.27765661 -5.20183324 21.27765661 -8.15234375 20 C-9.23644531 19.505 -10.32054687 19.01 -11.4375 18.5 C-17.2838765 15.82418525 -17.2838765 15.82418525 -19.5 12.5 C-19.95681807 8.38863735 -19.95731782 6.23497507 -17.75 2.6875 C-12.4621475 -2.45346771 -6.67905353 -2.86245151 0 0 Z " fill="#232323" transform="translate(222.5,23.5)"/>
<path d="M0 0 C2.8125 -0.1875 2.8125 -0.1875 6 0 C7.02104551 0.97850195 8.0206121 1.97980427 9 3 C10.99422795 3.36628677 12.99453311 3.70131344 15 4 C17 6 17 6 17.5 9.0625 C17.7475 10.5165625 17.7475 10.5165625 18 12 C18.66 12.33 19.32 12.66 20 13 C20.49667406 19.33259424 20.49667406 19.33259424 18 22.6875 C17.34 23.450625 16.68 24.21375 16 25 C16 26.32 16 27.64 16 29 C14 31 14 31 12.0546875 31.1953125 C10.03645833 31.13020833 8.01822917 31.06510417 6 31 C6 35.62 6 40.24 6 45 C5.67 45 5.34 45 5 45 C4.9906543 44.08186523 4.98130859 43.16373047 4.97167969 42.21777344 C4.92760069 38.80294722 4.86596268 35.38936892 4.79248047 31.97509766 C4.76429912 30.49897804 4.74307034 29.02270831 4.72900391 27.54638672 C4.70753302 25.42076943 4.66086957 23.29695121 4.609375 21.171875 C4.58842773 19.8940918 4.56748047 18.61630859 4.54589844 17.29980469 C3.91465962 13.48414107 3.06671618 12.28181624 0 10 C-2.80178374 9.30842045 -2.80178374 9.30842045 -5.75 9.25 C-7.22726563 9.16492188 -7.22726563 9.16492188 -8.734375 9.078125 C-9.48203125 9.05234375 -10.2296875 9.0265625 -11 9 C-10.6875 7.125 -10.6875 7.125 -10 5 C-7 3 -7 3 -3.875 2.5 C-2.92625 2.335 -1.9775 2.17 -1 2 C-0.67 1.34 -0.34 0.68 0 0 Z " fill="#687AFF" transform="translate(52,17)"/>
<path d="M0 0 C3.79259576 2.04216695 7.00344184 4.11780358 9 8 C9 10.31 9 12.62 9 15 C3.39 15 -2.22 15 -8 15 C-7.34 16.32 -6.68 17.64 -6 19 C-4.33388095 19.042721 -2.66617115 19.04063832 -1 19 C-0.67 18.67 -0.34 18.34 0 18 C2.67058851 17.85884839 5.32432238 17.95752893 8 18 C7.10368306 21.01488424 6.32087126 22.71802222 3.9375 24.8125 C-0.13552564 26.45904228 -3.66598611 26.69435786 -8 26 C-12.09994964 23.91275291 -14.29090928 22.23823842 -16 18 C-16.74722522 13.71063983 -16.9617225 9.68680666 -14.76171875 5.828125 C-10.41567901 0.60856362 -6.89827277 -0.58459939 0 0 Z " fill="#090909" transform="translate(192,29)"/>
<path d="M0 0 C3.62342508 1.6470114 6.16816086 3.4327343 8 7 C8.24015592 9.72002684 8.13704628 12.25907443 8 15 C3.38 15.33 -1.24 15.66 -6 16 C-4.96593327 17.25949049 -4.96593327 17.25949049 -2.71484375 17.09765625 C-1.79832031 17.08605469 -0.88179688 17.07445313 0.0625 17.0625 C0.98160156 17.05347656 1.90070313 17.04445313 2.84765625 17.03515625 C3.55792969 17.02355469 4.26820313 17.01195313 5 17 C5.66 18.65 6.32 20.3 7 22 C3.12575052 24.99941895 -0.02681362 25.52187402 -4.78125 25.35546875 C-8.26723014 24.79697545 -10.38200616 23.29872629 -13 21 C-15.72149931 16.59867869 -15.81456416 12.02586084 -15 7 C-10.7240688 1.45284601 -6.9825879 -0.60194723 0 0 Z " fill="#2B2B2B" transform="translate(280,31)"/>
<path d="M0 0 C2.31 0 4.62 0 7 0 C7 2.31 7 4.62 7 7 C8.98 7 10.96 7 13 7 C13 9.31 13 11.62 13 14 C11.02 14 9.04 14 7 14 C7.33 17.63 7.66 21.26 8 25 C9.65 25 11.3 25 13 25 C13.33 26.98 13.66 28.96 14 31 C10.75619969 32.62190015 7.50569996 32.5429478 4 32 C1 30.3125 1 30.3125 -1 27 C-1.40696685 22.63435556 -1.28795832 18.37056733 -1 14 C-2.32 14 -3.64 14 -5 14 C-5 11.69 -5 9.38 -5 7 C-3.68 7 -2.36 7 -1 7 C-0.67 4.69 -0.34 2.38 0 0 Z " fill="#212121" transform="translate(249,24)"/>
<path d="M0 0 C3 1.5 3 1.5 5 3 C3.25 6.875 3.25 6.875 1 8 C-0.99960012 8.039992 -3.00047242 8.04346799 -5 8 C-4.04287109 8.39832031 -4.04287109 8.39832031 -3.06640625 8.8046875 C-2.24011719 9.15789063 -1.41382813 9.51109375 -0.5625 9.875 C0.26121094 10.22304688 1.08492188 10.57109375 1.93359375 10.9296875 C4 12 4 12 5 14 C5.3125 16.875 5.3125 16.875 5 20 C3.1329009 22.30275556 1.64352259 23.67823871 -1 25 C-6.438918 25.55564585 -10.52479327 25.46467618 -15 22 C-14.1875 20.0625 -14.1875 20.0625 -13 18 C-9.30581799 16.768606 -6.7943739 17.35567236 -3 18 C-3 17.34 -3 16.68 -3 16 C-3.62648438 15.81824219 -4.25296875 15.63648438 -4.8984375 15.44921875 C-5.71570313 15.19785156 -6.53296875 14.94648437 -7.375 14.6875 C-8.18710937 14.44386719 -8.99921875 14.20023438 -9.8359375 13.94921875 C-12 13 -12 13 -14 10 C-14.5 7.625 -14.5 7.625 -14 5 C-9.54479892 -0.01210122 -6.60480246 -0.83870507 0 0 Z " fill="#272727" transform="translate(306,31)"/>
<path d="M0 0 C2.64 0 5.28 0 8 0 C8 8.25 8 16.5 8 25 C5.36 25 2.72 25 0 25 C0 16.75 0 8.5 0 0 Z " fill="#1C1C1C" transform="translate(232,31)"/>
<path d="M0 0 C1.98 0 3.96 0 6 0 C7.31682379 8.55935463 7.89195063 17.48622217 6 26 C5.67 26 5.34 26 5 26 C5 23.69 5 21.38 5 19 C3.35 19 1.7 19 0 19 C0 15.04 0 11.08 0 7 C1.65 7 3.3 7 5 7 C5 5.02 5 3.04 5 1 C3.35 1 1.7 1 0 1 C0 0.67 0 0.34 0 0 Z " fill="#F2F2F2" transform="translate(170,29)"/>
<path d="M0 0 C6.625 -0.25 6.625 -0.25 10 2 C9.125 6.875 9.125 6.875 8 8 C5.32941149 8.14115161 2.67567762 8.04247107 0 8 C0 5.36 0 2.72 0 0 Z " fill="#DADADA" transform="translate(114,41)"/>
<path d="M0 0 C0.6875 2.3125 0.6875 2.3125 1 5 C-0.125 6.875 -0.125 6.875 -2 8 C-5.34192692 7.75546876 -6.60543557 7.39456443 -9 5 C-8.75 2.4375 -8.75 2.4375 -8 0 C-5.13822943 -1.43088528 -3.06624227 -0.59991697 0 0 Z " fill="#2F2F2F" transform="translate(240,20)"/>
<path d="M0 0 C3.375 -0.125 3.375 -0.125 7 0 C7.66 0.66 8.32 1.32 9 2 C8.625 4.625 8.625 4.625 8 7 C5.36 7 2.72 7 0 7 C0 4.69 0 2.38 0 0 Z " fill="#E3E3E3" transform="translate(114,29)"/>
<path d="M0 0 C3.1875 0.3125 3.1875 0.3125 5.5625 1.875 C7.73205002 5.12932503 7.48201507 7.48380414 7.1875 11.3125 C6.5275 11.3125 5.8675 11.3125 5.1875 11.3125 C3.78515625 9.88671875 3.78515625 9.88671875 2.25 8 C0.32286829 5.64899789 -1.62969293 3.43014865 -3.8125 1.3125 C-2.8125 0.3125 -2.8125 0.3125 0 0 Z " fill="#EDEFFF" transform="translate(54.8125,16.6875)"/>
<path d="M0 0 C0.31785906 3.49644963 0.39644605 5.397402 -1.5625 8.375 C-4.81682503 10.54455002 -7.17130414 10.29451507 -11 10 C-10.06409496 8.8944811 -9.12620142 7.79064547 -8.1875 6.6875 C-7.66542969 6.07261719 -7.14335938 5.45773438 -6.60546875 4.82421875 C-2.35974304 0 -2.35974304 0 0 0 Z " fill="#F6F7FF" transform="translate(72,31)"/>
<path d="M0 0 C4 1 4 1 5 2 C5.375 5.3125 5.375 5.3125 5 9 C3.35 10.32 1.7 11.64 0 13 C0 8.71 0 4.42 0 0 Z " fill="#F4F5FF" transform="translate(64,21)"/>
<path d="M0 0 C1.32 1.65 2.64 3.3 4 5 C-0.29 5 -4.58 5 -9 5 C-8.67 3.68 -8.34 2.36 -8 1 C-5.12529507 -0.43735246 -3.18105412 -0.38172649 0 0 Z " fill="#F5F6FF" transform="translate(51,20)"/>
<path d="M0 0 C4.62 0 9.24 0 14 0 C14.33 0.99 14.66 1.98 15 3 C10.05 3 5.1 3 0 3 C0 2.01 0 1.02 0 0 Z " fill="#737CEA" transform="translate(36,51)"/>
<path d="M0 0 C3.3 0 6.6 0 10 0 C8 4 8 4 7 5 C4.66702567 5.04092937 2.33294775 5.04241723 0 5 C0 3.35 0 1.7 0 0 Z " fill="#F2F3FF" transform="translate(59,43)"/>
<path d="M0 0 C4.62 0 9.24 0 14 0 C14 0.99 14 1.98 14 3 C9.38 3 4.76 3 0 3 C0 2.01 0 1.02 0 0 Z " fill="#7079E9" transform="translate(36,36)"/>
<path d="M0 0 C5.28 0.33 10.56 0.66 16 1 C15.67 1.66 15.34 2.32 15 3 C13.700625 2.979375 12.40125 2.95875 11.0625 2.9375 C9.70834367 2.91600546 8.35243917 2.92851801 7 3 C6.67 3.33 6.34 3.66 6 4 C4.33382885 4.04063832 2.66611905 4.042721 1 4 C0.67 2.68 0.34 1.36 0 0 Z " fill="#CCCCCC" transform="translate(185,45)"/>
<path d="M0 0 C2.31 0 4.62 0 7 0 C7.33 1.32 7.66 2.64 8 4 C5.03 4 2.06 4 -1 4 C-0.67 2.68 -0.34 1.36 0 0 Z " fill="#DEDEDE" transform="translate(185,36)"/>
<path d="M0 0 C0.99 0.495 0.99 0.495 2 1 C2 4.96 2 8.92 2 13 C3.65 11.68 5.3 10.36 7 9 C7.66 9.66 8.32 10.32 9 11 C6.69 12.65 4.38 14.3 2 16 C1.34 15.67 0.68 15.34 0 15 C0 10.05 0 5.1 0 0 Z " fill="#8997FF" transform="translate(63,20)"/>
<path d="M0 0 C1.875 0.3125 1.875 0.3125 4 1 C4.66 1.99 5.32 2.98 6 4 C5.67 4.66 5.34 5.32 5 6 C0.05 6 -4.9 6 -10 6 C-9.67 5.01 -9.34 4.02 -9 3 C-9 3.66 -9 4.32 -9 5 C-3.06 4.505 -3.06 4.505 3 4 C2.01 2.68 1.02 1.36 0 0 Z " fill="#8F9DFF" transform="translate(51,20)"/>
<path d="M0 0 C0.33 0 0.66 0 1 0 C1.71033431 5.52967941 2.30267176 10.49983036 1 16 C0.67 16 0.34 16 0 16 C0 13.69 0 11.38 0 9 C-1.65 9 -3.3 9 -5 9 C-5 8.67 -5 8.34 -5 8 C-3.35 8 -1.7 8 0 8 C0 5.36 0 2.72 0 0 Z " fill="#DEDEDE" transform="translate(175,39)"/>
</svg>
